<svg width="16" height="16" viewBox="0 0 16 16" fill="none" xmlns="http://www.w3.org/2000/svg">
<path d="M8.66654 14C8.66654 14.3687 8.36788 14.6667 7.99988 14.6667H5.33321C3.49521 14.6667 1.99988 13.1714 1.99988 11.3334V4.66671C1.99988 2.82871 3.49521 1.33337 5.33321 1.33337H7.99988C8.36788 1.33337 8.66654 1.63137 8.66654 2.00004C8.66654 2.36871 8.36788 2.66671 7.99988 2.66671H5.33321C4.23054 2.66671 3.33321 3.56404 3.33321 4.66671V11.3334C3.33321 12.436 4.23054 13.3334 5.33321 13.3334H7.99988C8.36854 13.3334 8.66654 13.6314 8.66654 14ZM13.8045 7.52869L11.1379 4.86202C10.8772 4.60135 10.4559 4.60135 10.1952 4.86202C9.93454 5.12269 9.93454 5.54406 10.1952 5.80473L11.7239 7.33337H6.66654C6.29854 7.33337 5.99988 7.63137 5.99988 8.00004C5.99988 8.36871 6.29854 8.66671 6.66654 8.66671H11.7239L10.1952 10.1954C9.93454 10.456 9.93454 10.8774 10.1952 11.1381C10.3252 11.2681 10.4959 11.3334 10.6665 11.3334C10.8372 11.3334 11.0079 11.2681 11.1379 11.1381L13.8045 8.47139C14.0652 8.21073 14.0652 7.78869 13.8045 7.52869Z" fill="white"/>
</svg>
